<svg width="263" height="252" viewBox="0 0 263 252" fill="none" xmlns="http://www.w3.org/2000/svg">
<g opacity="0.7">
<path d="M144.501 12.9987C140.523 11.032 136.049 10 131.5 10C126.951 10 122.477 11.032 118.499 12.9987L17.8819 62.7609C15.7959 63.7939 14.0579 65.3046 12.8479 67.1366C11.6379 68.9686 10.9999 71.0554 11 73.1807V171.358C11.0011 175.61 12.2791 179.784 14.7015 183.448C17.1239 187.113 20.6026 190.133 24.7772 192.198L118.499 238.574C122.477 240.541 126.951 241.573 131.5 241.573C136.049 241.573 140.523 240.541 144.501 238.574L238.223 192.198C242.395 190.134 245.873 187.115 248.295 183.454C250.717 179.792 251.996 175.62 252 171.37V73.1807C252 71.0554 251.362 68.9686 250.152 67.1366C248.942 65.3046 247.204 63.7939 245.118 62.7609L144.487 12.9987H144.501Z" stroke="black" stroke-width="20" stroke-linecap="round" stroke-linejoin="round"/>
<path d="M131.5 125.78V245M252 66.1707L131.5 125.78L252 66.1707ZM131.5 125.78L11 66.1707L131.5 125.78Z" stroke="black" stroke-width="20" stroke-linejoin="round"/>
<path d="M211.833 129.691L171.667 149.624M191.75 95.9756L71.25 36.3658L191.75 95.9756Z" stroke="black" stroke-width="20" stroke-linecap="round" stroke-linejoin="round"/>
</g>
</svg>
